<svg width="32" height="32" viewBox="0 0 32 32" fill="none" xmlns="http://www.w3.org/2000/svg">
<g clip-path="url(#clip0_188_54)">
<rect x="1" y="1" width="30" height="30" rx="7" fill="white" stroke="black" stroke-width="2"/>
<path d="M11.66 8.96V23H8.24V8.96H11.66ZM24.8384 13.48C24.8384 14.2933 24.6518 15.04 24.2784 15.72C23.9051 16.3867 23.3318 16.9267 22.5584 17.34C21.7851 17.7533 20.8251 17.96 19.6784 17.96H17.5584V23H14.1384V8.96H19.6784C20.7984 8.96 21.7451 9.15333 22.5184 9.54C23.2918 9.92667 23.8718 10.46 24.2584 11.14C24.6451 11.82 24.8384 12.6 24.8384 13.48ZM19.4184 15.24C20.0718 15.24 20.5584 15.0867 20.8784 14.78C21.1984 14.4733 21.3584 14.04 21.3584 13.48C21.3584 12.92 21.1984 12.4867 20.8784 12.18C20.5584 11.8733 20.0718 11.72 19.4184 11.72H17.5584V15.24H19.4184Z" fill="black"/>
</g>
<defs>
<clipPath id="clip0_188_54">
<rect width="32" height="32" fill="white"/>
</clipPath>
</defs>
</svg>
